<mxfile host="app.diagrams.net" agent="Mozilla/5.0 (Windows NT 10.0; Win64; x64) AppleWebKit/537.36 (KHTML, like Gecko) Chrome/135.0.0.0 Safari/537.36" version="26.2.9">
  <diagram id="C5RBs43oDa-KdzZeNtuy" name="Page-1">
    <mxGraphModel dx="1680" dy="884" grid="1" gridSize="10" guides="1" tooltips="1" connect="1" arrows="1" fold="1" page="1" pageScale="1" pageWidth="827" pageHeight="1169" math="0" shadow="0">
      <root>
        <mxCell id="WIyWlLk6GJQsqaUBKTNV-0" />
        <mxCell id="WIyWlLk6GJQsqaUBKTNV-1" parent="WIyWlLk6GJQsqaUBKTNV-0" />
        <mxCell id="ZdGfvuFn95MMMhNWlHd1-54" style="edgeStyle=orthogonalEdgeStyle;rounded=0;orthogonalLoop=1;jettySize=auto;html=1;" edge="1" parent="WIyWlLk6GJQsqaUBKTNV-1" source="ZdGfvuFn95MMMhNWlHd1-0" target="ZdGfvuFn95MMMhNWlHd1-46">
          <mxGeometry relative="1" as="geometry" />
        </mxCell>
        <mxCell id="ZdGfvuFn95MMMhNWlHd1-0" value="Hurtownia" style="swimlane;fontStyle=1;align=center;verticalAlign=top;childLayout=stackLayout;horizontal=1;startSize=26;horizontalStack=0;resizeParent=1;resizeParentMax=0;resizeLast=0;collapsible=1;marginBottom=0;whiteSpace=wrap;html=1;" vertex="1" parent="WIyWlLk6GJQsqaUBKTNV-1">
          <mxGeometry x="100" y="228" width="160" height="278" as="geometry" />
        </mxCell>
        <mxCell id="ZdGfvuFn95MMMhNWlHd1-1" value="+ nr NIP: Variant" style="text;strokeColor=none;fillColor=none;align=left;verticalAlign=top;spacingLeft=4;spacingRight=4;overflow=hidden;rotatable=0;points=[[0,0.5],[1,0.5]];portConstraint=eastwest;whiteSpace=wrap;html=1;" vertex="1" parent="ZdGfvuFn95MMMhNWlHd1-0">
          <mxGeometry y="26" width="160" height="26" as="geometry" />
        </mxCell>
        <mxCell id="ZdGfvuFn95MMMhNWlHd1-34" value="+ nr kontaktowy: Variant" style="text;strokeColor=none;fillColor=none;align=left;verticalAlign=top;spacingLeft=4;spacingRight=4;overflow=hidden;rotatable=0;points=[[0,0.5],[1,0.5]];portConstraint=eastwest;whiteSpace=wrap;html=1;" vertex="1" parent="ZdGfvuFn95MMMhNWlHd1-0">
          <mxGeometry y="52" width="160" height="26" as="geometry" />
        </mxCell>
        <mxCell id="ZdGfvuFn95MMMhNWlHd1-35" value="+ imię i nazwisko właściciela/li: Variant" style="text;strokeColor=none;fillColor=none;align=left;verticalAlign=top;spacingLeft=4;spacingRight=4;overflow=hidden;rotatable=0;points=[[0,0.5],[1,0.5]];portConstraint=eastwest;whiteSpace=wrap;html=1;" vertex="1" parent="ZdGfvuFn95MMMhNWlHd1-0">
          <mxGeometry y="78" width="160" height="42" as="geometry" />
        </mxCell>
        <mxCell id="ZdGfvuFn95MMMhNWlHd1-36" value="+ adres rozliczeniowy: Variant" style="text;strokeColor=none;fillColor=none;align=left;verticalAlign=top;spacingLeft=4;spacingRight=4;overflow=hidden;rotatable=0;points=[[0,0.5],[1,0.5]];portConstraint=eastwest;whiteSpace=wrap;html=1;" vertex="1" parent="ZdGfvuFn95MMMhNWlHd1-0">
          <mxGeometry y="120" width="160" height="42" as="geometry" />
        </mxCell>
        <mxCell id="ZdGfvuFn95MMMhNWlHd1-37" value="+ adres biura: Variant" style="text;strokeColor=none;fillColor=none;align=left;verticalAlign=top;spacingLeft=4;spacingRight=4;overflow=hidden;rotatable=0;points=[[0,0.5],[1,0.5]];portConstraint=eastwest;whiteSpace=wrap;html=1;" vertex="1" parent="ZdGfvuFn95MMMhNWlHd1-0">
          <mxGeometry y="162" width="160" height="28" as="geometry" />
        </mxCell>
        <mxCell id="ZdGfvuFn95MMMhNWlHd1-2" value="" style="line;strokeWidth=1;fillColor=none;align=left;verticalAlign=middle;spacingTop=-1;spacingLeft=3;spacingRight=3;rotatable=0;labelPosition=right;points=[];portConstraint=eastwest;strokeColor=inherit;" vertex="1" parent="ZdGfvuFn95MMMhNWlHd1-0">
          <mxGeometry y="190" width="160" height="8" as="geometry" />
        </mxCell>
        <mxCell id="ZdGfvuFn95MMMhNWlHd1-3" value="+ przyjmijZamówienie()" style="text;strokeColor=none;fillColor=none;align=left;verticalAlign=top;spacingLeft=4;spacingRight=4;overflow=hidden;rotatable=0;points=[[0,0.5],[1,0.5]];portConstraint=eastwest;whiteSpace=wrap;html=1;" vertex="1" parent="ZdGfvuFn95MMMhNWlHd1-0">
          <mxGeometry y="198" width="160" height="40" as="geometry" />
        </mxCell>
        <mxCell id="ZdGfvuFn95MMMhNWlHd1-64" value="+ zrealizujZamówienie()" style="text;strokeColor=none;fillColor=none;align=left;verticalAlign=top;spacingLeft=4;spacingRight=4;overflow=hidden;rotatable=0;points=[[0,0.5],[1,0.5]];portConstraint=eastwest;whiteSpace=wrap;html=1;" vertex="1" parent="ZdGfvuFn95MMMhNWlHd1-0">
          <mxGeometry y="238" width="160" height="40" as="geometry" />
        </mxCell>
        <mxCell id="ZdGfvuFn95MMMhNWlHd1-4" value="&lt;i&gt;Pracownik&lt;/i&gt;" style="swimlane;fontStyle=1;align=center;verticalAlign=top;childLayout=stackLayout;horizontal=1;startSize=26;horizontalStack=0;resizeParent=1;resizeParentMax=0;resizeLast=0;collapsible=1;marginBottom=0;whiteSpace=wrap;html=1;" vertex="1" parent="WIyWlLk6GJQsqaUBKTNV-1">
          <mxGeometry x="1310" y="188" width="180" height="268" as="geometry" />
        </mxCell>
        <mxCell id="ZdGfvuFn95MMMhNWlHd1-5" value="# imię: Character" style="text;strokeColor=none;fillColor=none;align=left;verticalAlign=top;spacingLeft=4;spacingRight=4;overflow=hidden;rotatable=0;points=[[0,0.5],[1,0.5]];portConstraint=eastwest;whiteSpace=wrap;html=1;" vertex="1" parent="ZdGfvuFn95MMMhNWlHd1-4">
          <mxGeometry y="26" width="180" height="26" as="geometry" />
        </mxCell>
        <mxCell id="ZdGfvuFn95MMMhNWlHd1-6" value="# nazwisko: Character" style="text;strokeColor=none;fillColor=none;align=left;verticalAlign=top;spacingLeft=4;spacingRight=4;overflow=hidden;rotatable=0;points=[[0,0.5],[1,0.5]];portConstraint=eastwest;whiteSpace=wrap;html=1;" vertex="1" parent="ZdGfvuFn95MMMhNWlHd1-4">
          <mxGeometry y="52" width="180" height="26" as="geometry" />
        </mxCell>
        <mxCell id="ZdGfvuFn95MMMhNWlHd1-7" value="# nr. telefonu: Variant" style="text;strokeColor=none;fillColor=none;align=left;verticalAlign=top;spacingLeft=4;spacingRight=4;overflow=hidden;rotatable=0;points=[[0,0.5],[1,0.5]];portConstraint=eastwest;whiteSpace=wrap;html=1;" vertex="1" parent="ZdGfvuFn95MMMhNWlHd1-4">
          <mxGeometry y="78" width="180" height="26" as="geometry" />
        </mxCell>
        <mxCell id="ZdGfvuFn95MMMhNWlHd1-8" value="# adres e-mail: Variant" style="text;strokeColor=none;fillColor=none;align=left;verticalAlign=top;spacingLeft=4;spacingRight=4;overflow=hidden;rotatable=0;points=[[0,0.5],[1,0.5]];portConstraint=eastwest;whiteSpace=wrap;html=1;" vertex="1" parent="ZdGfvuFn95MMMhNWlHd1-4">
          <mxGeometry y="104" width="180" height="26" as="geometry" />
        </mxCell>
        <mxCell id="ZdGfvuFn95MMMhNWlHd1-9" value="# adres zamieszkania: Variant" style="text;strokeColor=none;fillColor=none;align=left;verticalAlign=top;spacingLeft=4;spacingRight=4;overflow=hidden;rotatable=0;points=[[0,0.5],[1,0.5]];portConstraint=eastwest;whiteSpace=wrap;html=1;" vertex="1" parent="ZdGfvuFn95MMMhNWlHd1-4">
          <mxGeometry y="130" width="180" height="26" as="geometry" />
        </mxCell>
        <mxCell id="ZdGfvuFn95MMMhNWlHd1-10" value="# nr. konta bankowego: Variant" style="text;strokeColor=none;fillColor=none;align=left;verticalAlign=top;spacingLeft=4;spacingRight=4;overflow=hidden;rotatable=0;points=[[0,0.5],[1,0.5]];portConstraint=eastwest;whiteSpace=wrap;html=1;" vertex="1" parent="ZdGfvuFn95MMMhNWlHd1-4">
          <mxGeometry y="156" width="180" height="26" as="geometry" />
        </mxCell>
        <mxCell id="ZdGfvuFn95MMMhNWlHd1-11" value="" style="line;strokeWidth=1;fillColor=none;align=left;verticalAlign=middle;spacingTop=-1;spacingLeft=3;spacingRight=3;rotatable=0;labelPosition=right;points=[];portConstraint=eastwest;strokeColor=inherit;" vertex="1" parent="ZdGfvuFn95MMMhNWlHd1-4">
          <mxGeometry y="182" width="180" height="8" as="geometry" />
        </mxCell>
        <mxCell id="ZdGfvuFn95MMMhNWlHd1-12" value="+ zwolnijPracownika()" style="text;strokeColor=none;fillColor=none;align=left;verticalAlign=top;spacingLeft=4;spacingRight=4;overflow=hidden;rotatable=0;points=[[0,0.5],[1,0.5]];portConstraint=eastwest;whiteSpace=wrap;html=1;" vertex="1" parent="ZdGfvuFn95MMMhNWlHd1-4">
          <mxGeometry y="190" width="180" height="26" as="geometry" />
        </mxCell>
        <mxCell id="ZdGfvuFn95MMMhNWlHd1-13" value="+ zatrudnijPracownika()" style="text;strokeColor=none;fillColor=none;align=left;verticalAlign=top;spacingLeft=4;spacingRight=4;overflow=hidden;rotatable=0;points=[[0,0.5],[1,0.5]];portConstraint=eastwest;whiteSpace=wrap;html=1;" vertex="1" parent="ZdGfvuFn95MMMhNWlHd1-4">
          <mxGeometry y="216" width="180" height="26" as="geometry" />
        </mxCell>
        <mxCell id="ZdGfvuFn95MMMhNWlHd1-14" value="+ wyślijNaSzkolenie()" style="text;strokeColor=none;fillColor=none;align=left;verticalAlign=top;spacingLeft=4;spacingRight=4;overflow=hidden;rotatable=0;points=[[0,0.5],[1,0.5]];portConstraint=eastwest;whiteSpace=wrap;html=1;" vertex="1" parent="ZdGfvuFn95MMMhNWlHd1-4">
          <mxGeometry y="242" width="180" height="26" as="geometry" />
        </mxCell>
        <mxCell id="ZdGfvuFn95MMMhNWlHd1-15" style="edgeStyle=orthogonalEdgeStyle;rounded=0;orthogonalLoop=1;jettySize=auto;html=1;" edge="1" parent="WIyWlLk6GJQsqaUBKTNV-1" source="ZdGfvuFn95MMMhNWlHd1-16" target="ZdGfvuFn95MMMhNWlHd1-4">
          <mxGeometry relative="1" as="geometry" />
        </mxCell>
        <mxCell id="ZdGfvuFn95MMMhNWlHd1-50" style="edgeStyle=orthogonalEdgeStyle;rounded=0;orthogonalLoop=1;jettySize=auto;html=1;" edge="1" parent="WIyWlLk6GJQsqaUBKTNV-1" source="ZdGfvuFn95MMMhNWlHd1-16" target="ZdGfvuFn95MMMhNWlHd1-46">
          <mxGeometry relative="1" as="geometry" />
        </mxCell>
        <mxCell id="ZdGfvuFn95MMMhNWlHd1-16" value="Kierownik Sprzedaży: Pracownik" style="swimlane;fontStyle=1;align=center;verticalAlign=top;childLayout=stackLayout;horizontal=1;startSize=26;horizontalStack=0;resizeParent=1;resizeParentMax=0;resizeLast=0;collapsible=1;marginBottom=0;whiteSpace=wrap;html=1;" vertex="1" parent="WIyWlLk6GJQsqaUBKTNV-1">
          <mxGeometry x="980" y="556" width="240" height="138" as="geometry" />
        </mxCell>
        <mxCell id="ZdGfvuFn95MMMhNWlHd1-17" value="+ dostęp do bazy danych: Boolean" style="text;strokeColor=none;fillColor=none;align=left;verticalAlign=top;spacingLeft=4;spacingRight=4;overflow=hidden;rotatable=0;points=[[0,0.5],[1,0.5]];portConstraint=eastwest;whiteSpace=wrap;html=1;" vertex="1" parent="ZdGfvuFn95MMMhNWlHd1-16">
          <mxGeometry y="26" width="240" height="26" as="geometry" />
        </mxCell>
        <mxCell id="ZdGfvuFn95MMMhNWlHd1-18" value="" style="line;strokeWidth=1;fillColor=none;align=left;verticalAlign=middle;spacingTop=-1;spacingLeft=3;spacingRight=3;rotatable=0;labelPosition=right;points=[];portConstraint=eastwest;strokeColor=inherit;" vertex="1" parent="ZdGfvuFn95MMMhNWlHd1-16">
          <mxGeometry y="52" width="240" height="8" as="geometry" />
        </mxCell>
        <mxCell id="ZdGfvuFn95MMMhNWlHd1-19" value="+ zlećKupno()" style="text;strokeColor=none;fillColor=none;align=left;verticalAlign=top;spacingLeft=4;spacingRight=4;overflow=hidden;rotatable=0;points=[[0,0.5],[1,0.5]];portConstraint=eastwest;whiteSpace=wrap;html=1;" vertex="1" parent="ZdGfvuFn95MMMhNWlHd1-16">
          <mxGeometry y="60" width="240" height="26" as="geometry" />
        </mxCell>
        <mxCell id="ZdGfvuFn95MMMhNWlHd1-20" value="+ zlećRozliczenieFaktury()" style="text;strokeColor=none;fillColor=none;align=left;verticalAlign=top;spacingLeft=4;spacingRight=4;overflow=hidden;rotatable=0;points=[[0,0.5],[1,0.5]];portConstraint=eastwest;whiteSpace=wrap;html=1;" vertex="1" parent="ZdGfvuFn95MMMhNWlHd1-16">
          <mxGeometry y="86" width="240" height="26" as="geometry" />
        </mxCell>
        <mxCell id="ZdGfvuFn95MMMhNWlHd1-21" value="+ zlećWypłaty()" style="text;strokeColor=none;fillColor=none;align=left;verticalAlign=top;spacingLeft=4;spacingRight=4;overflow=hidden;rotatable=0;points=[[0,0.5],[1,0.5]];portConstraint=eastwest;whiteSpace=wrap;html=1;" vertex="1" parent="ZdGfvuFn95MMMhNWlHd1-16">
          <mxGeometry y="112" width="240" height="26" as="geometry" />
        </mxCell>
        <mxCell id="ZdGfvuFn95MMMhNWlHd1-22" style="edgeStyle=orthogonalEdgeStyle;rounded=0;orthogonalLoop=1;jettySize=auto;html=1;" edge="1" parent="WIyWlLk6GJQsqaUBKTNV-1" source="ZdGfvuFn95MMMhNWlHd1-23" target="ZdGfvuFn95MMMhNWlHd1-4">
          <mxGeometry relative="1" as="geometry" />
        </mxCell>
        <mxCell id="ZdGfvuFn95MMMhNWlHd1-23" value="Księgowy: Pracownik" style="swimlane;fontStyle=1;align=center;verticalAlign=top;childLayout=stackLayout;horizontal=1;startSize=26;horizontalStack=0;resizeParent=1;resizeParentMax=0;resizeLast=0;collapsible=1;marginBottom=0;whiteSpace=wrap;html=1;" vertex="1" parent="WIyWlLk6GJQsqaUBKTNV-1">
          <mxGeometry x="1020" y="192" width="160" height="164" as="geometry" />
        </mxCell>
        <mxCell id="ZdGfvuFn95MMMhNWlHd1-24" value="+ dostęp do systemu księgowości: Boolean" style="text;strokeColor=none;fillColor=none;align=left;verticalAlign=top;spacingLeft=4;spacingRight=4;overflow=hidden;rotatable=0;points=[[0,0.5],[1,0.5]];portConstraint=eastwest;whiteSpace=wrap;html=1;" vertex="1" parent="ZdGfvuFn95MMMhNWlHd1-23">
          <mxGeometry y="26" width="160" height="34" as="geometry" />
        </mxCell>
        <mxCell id="ZdGfvuFn95MMMhNWlHd1-25" value="" style="line;strokeWidth=1;fillColor=none;align=left;verticalAlign=middle;spacingTop=-1;spacingLeft=3;spacingRight=3;rotatable=0;labelPosition=right;points=[];portConstraint=eastwest;strokeColor=inherit;" vertex="1" parent="ZdGfvuFn95MMMhNWlHd1-23">
          <mxGeometry y="60" width="160" height="8" as="geometry" />
        </mxCell>
        <mxCell id="ZdGfvuFn95MMMhNWlHd1-26" value="+ rozliczFakturę()" style="text;strokeColor=none;fillColor=none;align=left;verticalAlign=top;spacingLeft=4;spacingRight=4;overflow=hidden;rotatable=0;points=[[0,0.5],[1,0.5]];portConstraint=eastwest;whiteSpace=wrap;html=1;" vertex="1" parent="ZdGfvuFn95MMMhNWlHd1-23">
          <mxGeometry y="68" width="160" height="32" as="geometry" />
        </mxCell>
        <mxCell id="ZdGfvuFn95MMMhNWlHd1-27" value="+ zaktualizujSystem()" style="text;strokeColor=none;fillColor=none;align=left;verticalAlign=top;spacingLeft=4;spacingRight=4;overflow=hidden;rotatable=0;points=[[0,0.5],[1,0.5]];portConstraint=eastwest;whiteSpace=wrap;html=1;" vertex="1" parent="ZdGfvuFn95MMMhNWlHd1-23">
          <mxGeometry y="100" width="160" height="32" as="geometry" />
        </mxCell>
        <mxCell id="ZdGfvuFn95MMMhNWlHd1-28" value="+ inicjalizujWypłaty()" style="text;strokeColor=none;fillColor=none;align=left;verticalAlign=top;spacingLeft=4;spacingRight=4;overflow=hidden;rotatable=0;points=[[0,0.5],[1,0.5]];portConstraint=eastwest;whiteSpace=wrap;html=1;" vertex="1" parent="ZdGfvuFn95MMMhNWlHd1-23">
          <mxGeometry y="132" width="160" height="32" as="geometry" />
        </mxCell>
        <mxCell id="ZdGfvuFn95MMMhNWlHd1-38" value="Firma tworząca atrakcje" style="swimlane;fontStyle=1;align=center;verticalAlign=top;childLayout=stackLayout;horizontal=1;startSize=26;horizontalStack=0;resizeParent=1;resizeParentMax=0;resizeLast=0;collapsible=1;marginBottom=0;whiteSpace=wrap;html=1;" vertex="1" parent="WIyWlLk6GJQsqaUBKTNV-1">
          <mxGeometry x="70" y="556" width="190" height="266" as="geometry" />
        </mxCell>
        <mxCell id="ZdGfvuFn95MMMhNWlHd1-39" value="+ nr NIP: Variant" style="text;strokeColor=none;fillColor=none;align=left;verticalAlign=top;spacingLeft=4;spacingRight=4;overflow=hidden;rotatable=0;points=[[0,0.5],[1,0.5]];portConstraint=eastwest;whiteSpace=wrap;html=1;" vertex="1" parent="ZdGfvuFn95MMMhNWlHd1-38">
          <mxGeometry y="26" width="190" height="26" as="geometry" />
        </mxCell>
        <mxCell id="ZdGfvuFn95MMMhNWlHd1-40" value="+ nr kontaktowy: Variant" style="text;strokeColor=none;fillColor=none;align=left;verticalAlign=top;spacingLeft=4;spacingRight=4;overflow=hidden;rotatable=0;points=[[0,0.5],[1,0.5]];portConstraint=eastwest;whiteSpace=wrap;html=1;" vertex="1" parent="ZdGfvuFn95MMMhNWlHd1-38">
          <mxGeometry y="52" width="190" height="26" as="geometry" />
        </mxCell>
        <mxCell id="ZdGfvuFn95MMMhNWlHd1-41" value="+ imię i nazwisko właściciela/li: Variant" style="text;strokeColor=none;fillColor=none;align=left;verticalAlign=top;spacingLeft=4;spacingRight=4;overflow=hidden;rotatable=0;points=[[0,0.5],[1,0.5]];portConstraint=eastwest;whiteSpace=wrap;html=1;" vertex="1" parent="ZdGfvuFn95MMMhNWlHd1-38">
          <mxGeometry y="78" width="190" height="42" as="geometry" />
        </mxCell>
        <mxCell id="ZdGfvuFn95MMMhNWlHd1-42" value="+ adres rozliczeniowy: Variant" style="text;strokeColor=none;fillColor=none;align=left;verticalAlign=top;spacingLeft=4;spacingRight=4;overflow=hidden;rotatable=0;points=[[0,0.5],[1,0.5]];portConstraint=eastwest;whiteSpace=wrap;html=1;" vertex="1" parent="ZdGfvuFn95MMMhNWlHd1-38">
          <mxGeometry y="120" width="190" height="30" as="geometry" />
        </mxCell>
        <mxCell id="ZdGfvuFn95MMMhNWlHd1-43" value="+ adres biura: Variant" style="text;strokeColor=none;fillColor=none;align=left;verticalAlign=top;spacingLeft=4;spacingRight=4;overflow=hidden;rotatable=0;points=[[0,0.5],[1,0.5]];portConstraint=eastwest;whiteSpace=wrap;html=1;" vertex="1" parent="ZdGfvuFn95MMMhNWlHd1-38">
          <mxGeometry y="150" width="190" height="28" as="geometry" />
        </mxCell>
        <mxCell id="ZdGfvuFn95MMMhNWlHd1-44" value="" style="line;strokeWidth=1;fillColor=none;align=left;verticalAlign=middle;spacingTop=-1;spacingLeft=3;spacingRight=3;rotatable=0;labelPosition=right;points=[];portConstraint=eastwest;strokeColor=inherit;" vertex="1" parent="ZdGfvuFn95MMMhNWlHd1-38">
          <mxGeometry y="178" width="190" height="8" as="geometry" />
        </mxCell>
        <mxCell id="ZdGfvuFn95MMMhNWlHd1-45" value="+ przyjmijZ&lt;span style=&quot;background-color: transparent; color: light-dark(rgb(0, 0, 0), rgb(255, 255, 255));&quot;&gt;amówienie()&lt;/span&gt;" style="text;strokeColor=none;fillColor=none;align=left;verticalAlign=top;spacingLeft=4;spacingRight=4;overflow=hidden;rotatable=0;points=[[0,0.5],[1,0.5]];portConstraint=eastwest;whiteSpace=wrap;html=1;" vertex="1" parent="ZdGfvuFn95MMMhNWlHd1-38">
          <mxGeometry y="186" width="190" height="40" as="geometry" />
        </mxCell>
        <mxCell id="ZdGfvuFn95MMMhNWlHd1-65" value="+ zrealizujZamówienie()" style="text;strokeColor=none;fillColor=none;align=left;verticalAlign=top;spacingLeft=4;spacingRight=4;overflow=hidden;rotatable=0;points=[[0,0.5],[1,0.5]];portConstraint=eastwest;whiteSpace=wrap;html=1;" vertex="1" parent="ZdGfvuFn95MMMhNWlHd1-38">
          <mxGeometry y="226" width="190" height="40" as="geometry" />
        </mxCell>
        <mxCell id="ZdGfvuFn95MMMhNWlHd1-46" value="&lt;i&gt;Zamówienie&lt;/i&gt;" style="swimlane;fontStyle=1;align=center;verticalAlign=top;childLayout=stackLayout;horizontal=1;startSize=26;horizontalStack=0;resizeParent=1;resizeParentMax=0;resizeLast=0;collapsible=1;marginBottom=0;whiteSpace=wrap;html=1;" vertex="1" parent="WIyWlLk6GJQsqaUBKTNV-1">
          <mxGeometry x="440" y="394" width="160" height="216" as="geometry" />
        </mxCell>
        <mxCell id="ZdGfvuFn95MMMhNWlHd1-47" value="# nr zamówienia: Variant" style="text;strokeColor=none;fillColor=none;align=left;verticalAlign=top;spacingLeft=4;spacingRight=4;overflow=hidden;rotatable=0;points=[[0,0.5],[1,0.5]];portConstraint=eastwest;whiteSpace=wrap;html=1;" vertex="1" parent="ZdGfvuFn95MMMhNWlHd1-46">
          <mxGeometry y="26" width="160" height="26" as="geometry" />
        </mxCell>
        <mxCell id="ZdGfvuFn95MMMhNWlHd1-61" value="# opis: Variant" style="text;strokeColor=none;fillColor=none;align=left;verticalAlign=top;spacingLeft=4;spacingRight=4;overflow=hidden;rotatable=0;points=[[0,0.5],[1,0.5]];portConstraint=eastwest;whiteSpace=wrap;html=1;" vertex="1" parent="ZdGfvuFn95MMMhNWlHd1-46">
          <mxGeometry y="52" width="160" height="26" as="geometry" />
        </mxCell>
        <mxCell id="ZdGfvuFn95MMMhNWlHd1-70" value="# data zamówienia: Date" style="text;strokeColor=none;fillColor=none;align=left;verticalAlign=top;spacingLeft=4;spacingRight=4;overflow=hidden;rotatable=0;points=[[0,0.5],[1,0.5]];portConstraint=eastwest;whiteSpace=wrap;html=1;" vertex="1" parent="ZdGfvuFn95MMMhNWlHd1-46">
          <mxGeometry y="78" width="160" height="26" as="geometry" />
        </mxCell>
        <mxCell id="ZdGfvuFn95MMMhNWlHd1-71" value="# forma zapłaty: Variant" style="text;strokeColor=none;fillColor=none;align=left;verticalAlign=top;spacingLeft=4;spacingRight=4;overflow=hidden;rotatable=0;points=[[0,0.5],[1,0.5]];portConstraint=eastwest;whiteSpace=wrap;html=1;" vertex="1" parent="ZdGfvuFn95MMMhNWlHd1-46">
          <mxGeometry y="104" width="160" height="26" as="geometry" />
        </mxCell>
        <mxCell id="ZdGfvuFn95MMMhNWlHd1-72" value="# status: Variant" style="text;strokeColor=none;fillColor=none;align=left;verticalAlign=top;spacingLeft=4;spacingRight=4;overflow=hidden;rotatable=0;points=[[0,0.5],[1,0.5]];portConstraint=eastwest;whiteSpace=wrap;html=1;" vertex="1" parent="ZdGfvuFn95MMMhNWlHd1-46">
          <mxGeometry y="130" width="160" height="26" as="geometry" />
        </mxCell>
        <mxCell id="ZdGfvuFn95MMMhNWlHd1-48" value="" style="line;strokeWidth=1;fillColor=none;align=left;verticalAlign=middle;spacingTop=-1;spacingLeft=3;spacingRight=3;rotatable=0;labelPosition=right;points=[];portConstraint=eastwest;strokeColor=inherit;" vertex="1" parent="ZdGfvuFn95MMMhNWlHd1-46">
          <mxGeometry y="156" width="160" height="8" as="geometry" />
        </mxCell>
        <mxCell id="ZdGfvuFn95MMMhNWlHd1-49" value="+ zmieńStatus()" style="text;strokeColor=none;fillColor=none;align=left;verticalAlign=top;spacingLeft=4;spacingRight=4;overflow=hidden;rotatable=0;points=[[0,0.5],[1,0.5]];portConstraint=eastwest;whiteSpace=wrap;html=1;" vertex="1" parent="ZdGfvuFn95MMMhNWlHd1-46">
          <mxGeometry y="164" width="160" height="26" as="geometry" />
        </mxCell>
        <mxCell id="ZdGfvuFn95MMMhNWlHd1-73" value="+ ustalDatę()" style="text;strokeColor=none;fillColor=none;align=left;verticalAlign=top;spacingLeft=4;spacingRight=4;overflow=hidden;rotatable=0;points=[[0,0.5],[1,0.5]];portConstraint=eastwest;whiteSpace=wrap;html=1;" vertex="1" parent="ZdGfvuFn95MMMhNWlHd1-46">
          <mxGeometry y="190" width="160" height="26" as="geometry" />
        </mxCell>
        <mxCell id="ZdGfvuFn95MMMhNWlHd1-51" value="zleca" style="text;html=1;align=center;verticalAlign=middle;resizable=0;points=[];autosize=1;strokeColor=none;fillColor=none;" vertex="1" parent="WIyWlLk6GJQsqaUBKTNV-1">
          <mxGeometry x="730" y="600" width="50" height="30" as="geometry" />
        </mxCell>
        <mxCell id="ZdGfvuFn95MMMhNWlHd1-52" value="1" style="text;html=1;align=center;verticalAlign=middle;resizable=0;points=[];autosize=1;strokeColor=none;fillColor=none;" vertex="1" parent="WIyWlLk6GJQsqaUBKTNV-1">
          <mxGeometry x="940" y="600" width="30" height="30" as="geometry" />
        </mxCell>
        <mxCell id="ZdGfvuFn95MMMhNWlHd1-53" value="1...*" style="text;html=1;align=center;verticalAlign=middle;resizable=0;points=[];autosize=1;strokeColor=none;fillColor=none;" vertex="1" parent="WIyWlLk6GJQsqaUBKTNV-1">
          <mxGeometry x="600" y="470" width="40" height="30" as="geometry" />
        </mxCell>
        <mxCell id="ZdGfvuFn95MMMhNWlHd1-55" style="edgeStyle=orthogonalEdgeStyle;rounded=0;orthogonalLoop=1;jettySize=auto;html=1;" edge="1" parent="WIyWlLk6GJQsqaUBKTNV-1" source="ZdGfvuFn95MMMhNWlHd1-38" target="ZdGfvuFn95MMMhNWlHd1-46">
          <mxGeometry relative="1" as="geometry" />
        </mxCell>
        <mxCell id="ZdGfvuFn95MMMhNWlHd1-57" value="&lt;i&gt;Faktura&lt;/i&gt;" style="swimlane;fontStyle=1;align=center;verticalAlign=top;childLayout=stackLayout;horizontal=1;startSize=26;horizontalStack=0;resizeParent=1;resizeParentMax=0;resizeLast=0;collapsible=1;marginBottom=0;whiteSpace=wrap;html=1;" vertex="1" parent="WIyWlLk6GJQsqaUBKTNV-1">
          <mxGeometry x="570" y="90" width="170" height="216" as="geometry" />
        </mxCell>
        <mxCell id="ZdGfvuFn95MMMhNWlHd1-58" value="# nr faktury: Variant" style="text;strokeColor=none;fillColor=none;align=left;verticalAlign=top;spacingLeft=4;spacingRight=4;overflow=hidden;rotatable=0;points=[[0,0.5],[1,0.5]];portConstraint=eastwest;whiteSpace=wrap;html=1;" vertex="1" parent="ZdGfvuFn95MMMhNWlHd1-57">
          <mxGeometry y="26" width="170" height="26" as="geometry" />
        </mxCell>
        <mxCell id="ZdGfvuFn95MMMhNWlHd1-63" value="# wartość zapłaty: Float" style="text;strokeColor=none;fillColor=none;align=left;verticalAlign=top;spacingLeft=4;spacingRight=4;overflow=hidden;rotatable=0;points=[[0,0.5],[1,0.5]];portConstraint=eastwest;whiteSpace=wrap;html=1;" vertex="1" parent="ZdGfvuFn95MMMhNWlHd1-57">
          <mxGeometry y="52" width="170" height="26" as="geometry" />
        </mxCell>
        <mxCell id="ZdGfvuFn95MMMhNWlHd1-74" value="# data wystawienia: Date" style="text;strokeColor=none;fillColor=none;align=left;verticalAlign=top;spacingLeft=4;spacingRight=4;overflow=hidden;rotatable=0;points=[[0,0.5],[1,0.5]];portConstraint=eastwest;whiteSpace=wrap;html=1;" vertex="1" parent="ZdGfvuFn95MMMhNWlHd1-57">
          <mxGeometry y="78" width="170" height="26" as="geometry" />
        </mxCell>
        <mxCell id="ZdGfvuFn95MMMhNWlHd1-77" value="# data płatności: Date" style="text;strokeColor=none;fillColor=none;align=left;verticalAlign=top;spacingLeft=4;spacingRight=4;overflow=hidden;rotatable=0;points=[[0,0.5],[1,0.5]];portConstraint=eastwest;whiteSpace=wrap;html=1;" vertex="1" parent="ZdGfvuFn95MMMhNWlHd1-57">
          <mxGeometry y="104" width="170" height="26" as="geometry" />
        </mxCell>
        <mxCell id="ZdGfvuFn95MMMhNWlHd1-75" value="# czy zrealizowana: Boolean" style="text;strokeColor=none;fillColor=none;align=left;verticalAlign=top;spacingLeft=4;spacingRight=4;overflow=hidden;rotatable=0;points=[[0,0.5],[1,0.5]];portConstraint=eastwest;whiteSpace=wrap;html=1;" vertex="1" parent="ZdGfvuFn95MMMhNWlHd1-57">
          <mxGeometry y="130" width="170" height="26" as="geometry" />
        </mxCell>
        <mxCell id="ZdGfvuFn95MMMhNWlHd1-59" value="" style="line;strokeWidth=1;fillColor=none;align=left;verticalAlign=middle;spacingTop=-1;spacingLeft=3;spacingRight=3;rotatable=0;labelPosition=right;points=[];portConstraint=eastwest;strokeColor=inherit;" vertex="1" parent="ZdGfvuFn95MMMhNWlHd1-57">
          <mxGeometry y="156" width="170" height="8" as="geometry" />
        </mxCell>
        <mxCell id="ZdGfvuFn95MMMhNWlHd1-60" value="+ oznaczJakoOpłacona()" style="text;strokeColor=none;fillColor=none;align=left;verticalAlign=top;spacingLeft=4;spacingRight=4;overflow=hidden;rotatable=0;points=[[0,0.5],[1,0.5]];portConstraint=eastwest;whiteSpace=wrap;html=1;" vertex="1" parent="ZdGfvuFn95MMMhNWlHd1-57">
          <mxGeometry y="164" width="170" height="26" as="geometry" />
        </mxCell>
        <mxCell id="ZdGfvuFn95MMMhNWlHd1-76" value="+ sporządź()" style="text;strokeColor=none;fillColor=none;align=left;verticalAlign=top;spacingLeft=4;spacingRight=4;overflow=hidden;rotatable=0;points=[[0,0.5],[1,0.5]];portConstraint=eastwest;whiteSpace=wrap;html=1;" vertex="1" parent="ZdGfvuFn95MMMhNWlHd1-57">
          <mxGeometry y="190" width="170" height="26" as="geometry" />
        </mxCell>
        <mxCell id="ZdGfvuFn95MMMhNWlHd1-66" style="edgeStyle=orthogonalEdgeStyle;rounded=0;orthogonalLoop=1;jettySize=auto;html=1;exitX=0.5;exitY=0;exitDx=0;exitDy=0;" edge="1" parent="WIyWlLk6GJQsqaUBKTNV-1" source="ZdGfvuFn95MMMhNWlHd1-46" target="ZdGfvuFn95MMMhNWlHd1-57">
          <mxGeometry relative="1" as="geometry" />
        </mxCell>
        <mxCell id="ZdGfvuFn95MMMhNWlHd1-68" value="1" style="text;html=1;align=center;verticalAlign=middle;resizable=0;points=[];autosize=1;strokeColor=none;fillColor=none;" vertex="1" parent="WIyWlLk6GJQsqaUBKTNV-1">
          <mxGeometry x="980" y="250" width="30" height="30" as="geometry" />
        </mxCell>
        <mxCell id="ZdGfvuFn95MMMhNWlHd1-69" value="1...*" style="text;html=1;align=center;verticalAlign=middle;resizable=0;points=[];autosize=1;strokeColor=none;fillColor=none;" vertex="1" parent="WIyWlLk6GJQsqaUBKTNV-1">
          <mxGeometry x="740" y="162" width="40" height="30" as="geometry" />
        </mxCell>
        <mxCell id="ZdGfvuFn95MMMhNWlHd1-78" value="1" style="text;html=1;align=center;verticalAlign=middle;resizable=0;points=[];autosize=1;strokeColor=none;fillColor=none;" vertex="1" parent="WIyWlLk6GJQsqaUBKTNV-1">
          <mxGeometry x="490" y="364" width="30" height="30" as="geometry" />
        </mxCell>
        <mxCell id="ZdGfvuFn95MMMhNWlHd1-79" value="1" style="text;html=1;align=center;verticalAlign=middle;resizable=0;points=[];autosize=1;strokeColor=none;fillColor=none;" vertex="1" parent="WIyWlLk6GJQsqaUBKTNV-1">
          <mxGeometry x="660" y="306" width="30" height="30" as="geometry" />
        </mxCell>
        <mxCell id="ZdGfvuFn95MMMhNWlHd1-82" value="" style="edgeStyle=orthogonalEdgeStyle;rounded=0;orthogonalLoop=1;jettySize=auto;html=1;" edge="1" parent="WIyWlLk6GJQsqaUBKTNV-1" source="ZdGfvuFn95MMMhNWlHd1-23" target="ZdGfvuFn95MMMhNWlHd1-57">
          <mxGeometry relative="1" as="geometry">
            <mxPoint x="1020" y="274" as="sourcePoint" />
            <mxPoint x="740" y="198" as="targetPoint" />
          </mxGeometry>
        </mxCell>
        <mxCell id="ZdGfvuFn95MMMhNWlHd1-81" value="opłać" style="text;html=1;align=center;verticalAlign=middle;resizable=0;points=[];autosize=1;strokeColor=none;fillColor=none;" vertex="1" parent="WIyWlLk6GJQsqaUBKTNV-1">
          <mxGeometry x="827" y="170" width="50" height="30" as="geometry" />
        </mxCell>
      </root>
    </mxGraphModel>
  </diagram>
</mxfile>
